<?xml version="1.0" standalone="no"?>
<!DOCTYPE svg PUBLIC "-//W3C//DTD SVG 20010904//EN"
 "http://www.w3.org/TR/2001/REC-SVG-20010904/DTD/svg10.dtd">
<svg version="1.0" xmlns="http://www.w3.org/2000/svg"
 width="800.000000pt" height="800.000000pt" viewBox="0 0 800.000000 800.000000"
 preserveAspectRatio="xMidYMid meet">

<g transform="translate(0.000000,800.000000) scale(0.100000,-0.100000)"
fill="#000000" stroke="none">
<path d="M6456 4395 c-286 -73 -467 -363 -401 -644 44 -187 202 -345 395 -396
72 -19 230 -19 305 0 190 50 356 219 394 403 56 267 -85 519 -346 618 -86 33
-255 42 -347 19z m326 -178 c85 -42 150 -105 189 -184 21 -42 24 -62 24 -158
0 -101 -2 -115 -29 -170 -36 -72 -101 -137 -175 -174 -320 -161 -675 122 -572
456 35 116 112 196 236 248 52 22 73 25 156 23 87 -3 102 -6 171 -41z"/>
<path d="M1353 4323 c-17 -32 -120 -229 -228 -438 -108 -209 -217 -417 -241
-463 l-45 -83 93 3 92 3 75 145 76 145 249 0 248 0 78 -145 77 -145 96 -3 97
-3 -57 108 c-32 59 -155 293 -274 518 l-217 410 -44 3 -45 3 -30 -58z m151
-359 c42 -80 76 -150 76 -155 0 -5 -66 -9 -156 -9 -119 0 -155 3 -152 13 3 13
151 297 154 297 1 0 36 -66 78 -146z"/>
<path d="M2297 3878 c-43 -277 -81 -511 -83 -520 -5 -16 3 -18 79 -18 l85 0 4
38 c10 92 93 602 98 602 3 0 83 -144 179 -320 l173 -320 37 0 37 0 175 320
c96 175 176 319 179 320 3 0 27 -144 54 -320 l50 -320 81 0 c80 0 82 1 78 23
-10 60 -153 1001 -153 1009 0 5 -18 8 -41 6 l-41 -3 -206 -378 c-114 -207
-210 -376 -215 -374 -4 1 -99 171 -211 377 l-204 375 -39 3 -38 3 -78 -503z"/>
<path d="M4154 4193 c-54 -103 -175 -336 -270 -518 l-172 -330 81 -3 c44 -2
85 -1 91 1 6 3 45 71 86 151 l75 146 248 -3 249 -2 76 -145 77 -145 96 -3 97
-3 -163 308 c-89 169 -212 403 -273 518 l-111 210 -45 3 -44 3 -98 -188z m221
-232 c41 -79 75 -148 75 -152 0 -5 -70 -9 -155 -9 -85 0 -155 4 -155 9 0 12
151 303 156 299 2 -2 37 -69 79 -147z"/>
<path d="M5078 3861 l-3 -521 83 0 82 0 0 220 0 220 50 0 49 0 168 -220 168
-220 107 0 107 0 -170 221 c-94 121 -169 222 -167 224 1 1 28 10 59 19 146 41
220 137 223 286 2 115 -71 213 -192 262 -53 21 -75 23 -309 26 l-253 4 -2
-521z m517 337 c71 -38 95 -98 65 -165 -31 -70 -78 -86 -267 -91 l-153 -4 0
142 0 142 163 -4 c124 -3 169 -7 192 -20z"/>
</g>
</svg>
